<svg width="143" height="186" viewBox="0 0 143 186" fill="none" xmlns="http://www.w3.org/2000/svg">
<circle cx="131.579" cy="50.3574" r="11.3711" fill="#7C3AED"/>
<circle cx="11.3711" cy="131.58" r="11.3711" fill="#7C3AED"/>
<circle cx="53.6066" cy="151.073" r="11.3711" fill="#7C3AED"/>
<circle cx="99.0909" cy="173.815" r="11.3711" fill="#7C3AED"/>
<circle cx="102.34" cy="134.828" r="11.3711" fill="#7C3AED"/>
<circle cx="115.335" cy="99.0911" r="11.3711" fill="#7C3AED"/>
<circle cx="76.3486" cy="92.593" r="11.3711" fill="#7C3AED"/>
<circle cx="34.1129" cy="82.8464" r="11.3711" fill="#7C3AED"/>
<circle cx="43.8597" cy="50.3574" r="11.3711" fill="#7C3AED"/>
<circle cx="47.1083" cy="14.6199" r="11.3711" fill="#7C3AED"/>
<circle cx="92.5928" cy="11.3711" r="11.3711" fill="#7C3AED"/>
<circle cx="95.8423" cy="40.6108" r="11.3711" fill="#7C3AED"/>
<circle cx="108.837" cy="53.6063" r="8.12221" fill="#A855F7"/>
<circle cx="112.087" cy="17.8688" r="8.12221" fill="#A855F7"/>
<circle cx="69.8508" cy="30.8639" r="8.12221" fill="#A855F7"/>
<circle cx="21.1177" cy="30.8639" r="8.12221" fill="#A855F7"/>
<circle cx="17.8689" cy="66.6017" r="8.12221" fill="#A855F7"/>
<circle cx="60.1044" cy="73.0993" r="8.12221" fill="#A855F7"/>
<circle cx="53.6068" cy="99.0907" r="8.12221" fill="#A855F7"/>
<circle cx="92.5935" cy="115.335" r="8.12221" fill="#A855F7"/>
<circle cx="131.579" cy="131.579" r="8.12221" fill="#A855F7"/>
<circle cx="73.0998" cy="177.063" r="8.12221" fill="#A855F7"/>
<circle cx="30.8641" cy="167.317" r="8.12221" fill="#A855F7"/>
<circle cx="37.362" cy="125.082" r="8.12221" fill="#A855F7"/>
<circle cx="89.344" cy="154.322" r="8.12221" fill="#A855F7"/>
<circle cx="128.33" cy="154.322" r="8.12221" fill="#A855F7"/>
<circle cx="125.082" cy="27.615" r="4.87332" fill="#E879F9"/>
<circle cx="115.335" cy="43.8596" r="4.87332" fill="#E879F9"/>
<circle cx="112.086" cy="30.864" r="4.87332" fill="#E879F9"/>
<circle cx="86.0951" cy="27.615" r="4.87332" fill="#E879F9"/>
<circle cx="63.3531" cy="8.1221" r="4.87332" fill="#E879F9"/>
<circle cx="73.0997" cy="17.8684" r="4.87332" fill="#E879F9"/>
<circle cx="50.3579" cy="34.1131" r="4.87332" fill="#E879F9"/>
<circle cx="56.8555" cy="21.1175" r="4.87332" fill="#E879F9"/>
<circle cx="34.1131" cy="27.615" r="4.87332" fill="#E879F9"/>
<circle cx="30.864" cy="40.6111" r="4.87332" fill="#E879F9"/>
<circle cx="17.8688" cy="50.3575" r="4.87332" fill="#E879F9"/>
<circle cx="34.1131" cy="66.6018" r="4.87332" fill="#E879F9"/>
<circle cx="27.6153" cy="56.8553" r="4.87332" fill="#E879F9"/>
<circle cx="47.1089" cy="69.8504" r="4.87332" fill="#E879F9"/>
<circle cx="50.3579" cy="86.0952" r="4.87332" fill="#E879F9"/>
<circle cx="73.0997" cy="108.837" r="4.87332" fill="#E879F9"/>
<circle cx="95.8422" cy="89.344" r="4.87332" fill="#E879F9"/>
<circle cx="95.8422" cy="102.34" r="4.87332" fill="#E879F9"/>
<circle cx="105.589" cy="118.584" r="4.87332" fill="#E879F9"/>
<circle cx="121.833" cy="115.335" r="4.87332" fill="#E879F9"/>
<circle cx="118.584" cy="131.58" r="4.87332" fill="#E879F9"/>
<circle cx="105.589" cy="151.073" r="4.87332" fill="#E879F9"/>
<circle cx="118.584" cy="144.575" r="4.87332" fill="#E879F9"/>
<circle cx="115.335" cy="164.068" r="4.87332" fill="#E879F9"/>
<circle cx="73.0997" cy="154.322" r="4.87332" fill="#E879F9"/>
<circle cx="79.5976" cy="164.068" r="4.87332" fill="#E879F9"/>
<circle cx="47.1089" cy="177.064" r="4.87332" fill="#E879F9"/>
<circle cx="40.6109" cy="160.819" r="4.87332" fill="#E879F9"/>
<circle cx="60.1043" cy="170.566" r="4.87332" fill="#E879F9"/>
<circle cx="14.62" cy="147.824" r="4.87332" fill="#E879F9"/>
<circle cx="21.1175" cy="160.819" r="4.87332" fill="#E879F9"/>
<circle cx="30.864" cy="147.824" r="4.87332" fill="#E879F9"/>
<circle cx="40.6109" cy="138.077" r="4.87332" fill="#E879F9"/>
<circle cx="24.3665" cy="131.58" r="4.87332" fill="#E879F9"/>
<circle cx="99.091" cy="24.3662" r="4.87332" fill="#E879F9"/>
</svg>
